<svg xmlns="http://www.w3.org/2000/svg" version="1.1" xmlns:xlink="http://www.w3.org/1999/xlink" xmlns:svgjs="http://svgjs.com/svgjs" width="1000" height="1000"><rect width="1000" height="1000" rx="250" ry="250" fill="#c0c0c0"></rect><g transform="matrix(3.515625,0,0,3.515625,45.41803181171417,50.00024950504303)"><svg xmlns="http://www.w3.org/2000/svg" version="1.1" xmlns:xlink="http://www.w3.org/1999/xlink" xmlns:svgjs="http://svgjs.com/svgjs" width="256" height="256"><svg width="256" height="256" viewBox="0 0 256 256" fill="none" xmlns="http://www.w3.org/2000/svg">
    <mask id="path-1-outside-1_1_6" maskUnits="userSpaceOnUse" x="26.5868" y="5" width="207" height="246" fill="black">
        <rect fill="white" x="26.5868" y="5" width="207" height="246"></rect>
        <path fill-rule="evenodd" clip-rule="evenodd" d="M99.0059 12L165.425 50.3471V55.2519L187.204 42.6777L227.056 65.686V111.702L187.323 134.642L217.331 151.967V213.322L164.196 244L111.061 213.322V158.429L99.0059 165.388L32.5868 127.041V50.3471L99.0059 12Z"></path>
    </mask>
    <path fill-rule="evenodd" clip-rule="evenodd" d="M99.0059 12L165.425 50.3471V55.2519L187.204 42.6777L227.056 65.686V111.702L187.323 134.642L217.331 151.967V213.322L164.196 244L111.061 213.322V158.429L99.0059 165.388L32.5868 127.041V50.3471L99.0059 12Z" fill="#B9B9B9"></path>
    <path d="M165.425 50.3471H171.425V46.883L168.425 45.151L165.425 50.3471ZM99.0059 12L102.006 6.80385L99.0059 5.0718L96.0059 6.80385L99.0059 12ZM165.425 55.2519H159.425V65.6442L168.425 60.4481L165.425 55.2519ZM187.204 42.6777L190.204 37.4815L187.204 35.7495L184.204 37.4815L187.204 42.6777ZM227.056 65.686H233.056V62.2218L230.056 60.4898L227.056 65.686ZM227.056 111.702L230.056 116.899L233.056 115.167V111.702H227.056ZM187.323 134.642L184.323 129.446L175.323 134.642L184.323 139.838L187.323 134.642ZM217.331 151.967H223.331V148.503L220.331 146.771L217.331 151.967ZM217.331 213.322L220.331 218.518L223.331 216.786V213.322H217.331ZM164.196 244L161.196 249.196L164.196 250.928L167.196 249.196L164.196 244ZM111.061 213.322H105.061V216.786L108.061 218.518L111.061 213.322ZM111.061 158.429H117.061V148.036L108.061 153.232L111.061 158.429ZM99.0059 165.388L96.0059 170.585L99.0059 172.317L102.006 170.585L99.0059 165.388ZM32.5868 127.041H26.5868V130.505L29.5868 132.237L32.5868 127.041ZM32.5868 50.3471L29.5868 45.151L26.5868 46.883V50.3471H32.5868ZM168.425 45.151L102.006 6.80385L96.0059 17.1962L162.425 55.5433L168.425 45.151ZM171.425 55.2519V50.3471H159.425V55.2519H171.425ZM168.425 60.4481L190.204 47.8738L184.204 37.4815L162.425 50.0558L168.425 60.4481ZM184.204 47.8738L224.056 70.8821L230.056 60.4898L190.204 37.4815L184.204 47.8738ZM221.056 65.686V111.702H233.056V65.686H221.056ZM224.056 106.506L184.323 129.446L190.323 139.838L230.056 116.899L224.056 106.506ZM220.331 146.771L190.323 129.446L184.323 139.838L214.331 157.163L220.331 146.771ZM223.331 213.322V151.967H211.331V213.322H223.331ZM167.196 249.196L220.331 218.518L214.331 208.126L161.196 238.804L167.196 249.196ZM108.061 218.518L161.196 249.196L167.196 238.804L114.061 208.126L108.061 218.518ZM105.061 158.429V213.322H117.061V158.429H105.061ZM102.006 170.585L114.061 163.625L108.061 153.232L96.0059 160.192L102.006 170.585ZM29.5868 132.237L96.0059 170.585L102.006 160.192L35.5868 121.845L29.5868 132.237ZM26.5868 50.3471V127.041H38.5868V50.3471H26.5868ZM96.0059 6.80385L29.5868 45.151L35.5868 55.5433L102.006 17.1962L96.0059 6.80385Z" fill="#B9B9B9" mask="url(#path-1-outside-1_1_6)"></path>
    <path d="M114.749 153.699L164.884 124.753L215.02 153.699V211.59L164.884 240.536L114.749 211.59V153.699Z" fill="white" stroke="#7D7D7D" stroke-width="6"></path>
    <path d="M36.2751 52.0792L99.6942 15.4641L163.113 52.0792V125.309L99.6942 161.924L36.2751 125.309V52.0792Z" fill="#7D7D7D" stroke="black" stroke-width="6"></path>
    <path d="M151.041 67.418L187.893 46.1418L224.744 67.418V109.97L187.893 131.247L151.041 109.97V67.418Z" fill="black" stroke="white" stroke-width="6"></path>
</svg></svg></g></svg>